<svg width="24" height="17" viewBox="0 0 24 17" fill="none" xmlns="http://www.w3.org/2000/svg">
<path d="M2.34513 1.34577L2.45859 2.0403C2.85445 1.44159 3.44406 1.09489 4.22742 1.0002C5.10773 0.893788 5.74767 1.15876 6.14723 1.79509C6.32008 1.46729 6.56201 1.19016 6.87302 0.963708C7.1879 0.736778 7.57415 0.595658 8.03174 0.540338C9.41234 0.373458 10.2026 1.01962 10.4026 2.47882L10.9124 6.69613L9.83624 6.82623L9.33424 2.67289C9.27984 2.22304 9.13654 1.90001 8.90424 1.70381C8.67154 1.50373 8.31274 1.43299 7.82803 1.49159C7.42859 1.53987 7.11156 1.70017 6.87691 1.97248C6.6418 2.24092 6.5273 2.57937 6.53339 2.98784L7.03825 7.16443L5.95628 7.29523L5.45775 3.17098C5.34712 2.25577 4.84389 1.8523 3.94807 1.96059C3.24227 2.0459 2.79579 2.40481 2.60862 3.03731L3.16411 7.63273L2.08796 7.76283L1.32715 1.46882L2.34513 1.34577Z" fill="black"/>
<path d="M14.6934 7.62012C14.6309 7.49512 14.5801 7.27242 14.541 6.95212C14.0371 7.47562 13.4356 7.73732 12.7363 7.73732C12.1113 7.73732 11.5977 7.56152 11.1953 7.20992C10.7969 6.85452 10.5977 6.40532 10.5977 5.86232C10.5977 5.20215 10.8477 4.69043 11.3477 4.32715C11.8516 3.95996 12.5586 3.77637 13.4688 3.77637H14.5235V3.27832C14.5235 2.89942 14.4102 2.59864 14.1836 2.37598C13.957 2.14942 13.6231 2.03614 13.1817 2.03614C12.7949 2.03614 12.4707 2.13379 12.209 2.3291C11.9473 2.52442 11.8164 2.76074 11.8164 3.03809H10.7266C10.7266 2.72168 10.8379 2.417 11.0606 2.12403C11.2871 1.82715 11.5918 1.59278 11.9746 1.4209C12.3613 1.24903 12.7852 1.16309 13.2461 1.16309C13.9766 1.16309 14.5488 1.34668 14.9629 1.71387C15.377 2.07715 15.5918 2.5791 15.6074 3.21973V6.13772C15.6074 6.71972 15.6817 7.18262 15.8301 7.52632V7.62012H14.6934ZM12.8945 6.79392C13.2344 6.79392 13.5567 6.70602 13.8613 6.53032C14.166 6.35452 14.3867 6.12602 14.5235 5.84472V4.54395H13.6738C12.3457 4.54395 11.6817 4.93262 11.6817 5.70992C11.6817 6.04982 11.7949 6.31542 12.0215 6.50682C12.2481 6.69822 12.5391 6.79392 12.8945 6.79392Z" fill="black"/>
<path d="M17.6715 2.24848L18.3522 9.28796C18.4695 10.501 17.978 11.1608 16.8776 11.2672C16.6405 11.2901 16.4174 11.2764 16.2084 11.2259L16.125 10.3628C16.2524 10.3818 16.4172 10.3816 16.6194 10.3621C16.8605 10.3387 17.0368 10.255 17.1484 10.1108C17.2643 9.96996 17.3067 9.73826 17.2755 9.41556L16.5926 2.35281L17.6715 2.24848ZM16.3199 0.689694C16.3034 0.518614 16.3417 0.367744 16.4351 0.237054C16.5319 0.102114 16.6834 0.0246739 16.8894 0.00474392C17.0994 -0.0155561 17.2646 0.0292936 17.3851 0.139304C17.5057 0.249304 17.5744 0.391794 17.5913 0.566754C17.6082 0.741724 17.5679 0.892794 17.4703 1.01996C17.3727 1.14713 17.2189 1.22086 17.009 1.24116C16.799 1.26147 16.6359 1.21837 16.5197 1.11188C16.4034 1.00539 16.3368 0.864664 16.3199 0.689694Z" fill="black"/>
<path d="M21.9719 7.04132C21.9224 6.91062 21.8943 6.68402 21.8877 6.36142C21.3336 6.83132 20.7087 7.03112 20.0131 6.96062C19.3913 6.89762 18.8979 6.67102 18.5331 6.28062C18.1725 5.88682 18.0195 5.41982 18.0743 4.87961C18.1408 4.22282 18.4411 3.73891 18.9752 3.42787C19.5135 3.11334 20.2355 3.00195 21.141 3.09369L22.1903 3.19999L22.2405 2.70448C22.2787 2.3275 22.1963 2.01684 21.9933 1.77248C21.7908 1.52423 21.4699 1.37787 21.0308 1.33338C20.646 1.2944 20.3136 1.35888 20.0335 1.52682C19.7534 1.69475 19.5994 1.91669 19.5715 2.19262L18.4872 2.08277C18.5191 1.76798 18.6605 1.47606 18.9116 1.20703C19.1669 0.934496 19.4937 0.732026 19.8919 0.599606C20.294 0.467586 20.7243 0.424806 21.1829 0.471266C21.9096 0.544896 22.4605 0.785236 22.8354 1.19229C23.2107 1.59545 23.3739 2.11651 23.3249 2.75544L23.0308 5.65852C22.9721 6.23762 22.9993 6.70562 23.1123 7.06262L23.1029 7.15582L21.9719 7.04132ZM20.2655 6.03802C20.6037 6.07232 20.9331 6.01732 21.254 5.87312C21.5749 5.72892 21.8175 5.52385 21.9818 5.25782L22.1129 3.96366L21.2677 3.87803C19.9463 3.74416 19.2464 4.06392 19.1681 4.8373C19.1338 5.17542 19.2198 5.45111 19.4259 5.66442C19.632 5.87762 19.9119 6.00222 20.2655 6.03802Z" fill="black"/>
<path d="M0.118057 11.561C-0.0864129 10.5941 -0.0252827 9.77872 0.301447 9.11472C0.627367 8.44692 1.15913 8.03502 1.89672 7.87902C2.65343 7.71902 3.30045 7.86162 3.83781 8.30702L3.74393 7.60822L4.71274 7.40332L5.99287 13.4569C6.16258 14.2595 6.05747 14.9425 5.67755 15.5059C5.30144 16.0686 4.7121 16.4348 3.90954 16.6045C3.46239 16.699 3.0046 16.696 2.53616 16.5954C2.06772 16.4949 1.6856 16.3022 1.38981 16.0174L1.80558 15.2647C2.37916 15.7303 2.99463 15.8936 3.65196 15.7546C4.1679 15.6455 4.53847 15.4154 4.76368 15.0644C4.99271 14.7125 5.05147 14.2729 4.93994 13.7455L4.8272 13.2123C4.50643 13.7912 3.97916 14.1582 3.24539 14.3134C2.51926 14.467 1.86889 14.299 1.29427 13.8097C0.723477 13.3195 0.331407 12.57 0.118057 11.561ZM1.20978 11.4559C1.35767 12.1553 1.61736 12.6753 1.98885 13.016C2.35953 13.3528 2.80283 13.4667 3.31877 13.3576C3.98757 13.2162 4.41442 12.8085 4.5993 12.1346L4.00045 9.30272C3.55034 8.77902 3.00044 8.58592 2.35074 8.72332C1.83481 8.83242 1.47404 9.11832 1.26845 9.58102C1.06285 10.0437 1.0433 10.6687 1.20978 11.4559Z" fill="black"/>
<path d="M9.96488 14.0312C9.91488 13.9007 9.88618 13.6742 9.87868 13.3516C9.32588 13.8231 8.70158 14.0247 8.00578 13.9562C7.38375 13.8949 6.88976 13.6697 6.52379 13.2804C6.16208 12.8876 6.00782 12.4211 6.06101 11.8807C6.12567 11.2237 6.42459 10.739 6.95777 10.4264C7.49522 10.1103 8.21688 9.99685 9.12258 10.086L10.1722 10.1893L10.221 9.69365C10.2581 9.31655 10.1749 9.00615 9.97118 8.76235C9.76788 8.51465 9.44658 8.36925 9.00738 8.32595C8.62248 8.28805 8.29028 8.35355 8.01068 8.52225C7.73107 8.69105 7.57769 8.91335 7.55053 9.18935L6.46592 9.08265C6.49692 8.76775 6.63755 8.47545 6.88783 8.20565C7.14239 7.93245 7.46857 7.72905 7.86637 7.59545C8.26808 7.46235 8.69828 7.41825 9.15698 7.46345C9.88398 7.53495 10.4355 7.77375 10.8116 8.17975C11.1881 8.58185 11.3527 9.10245 11.3055 9.74145L11.0197 12.6455C10.9627 13.2247 10.9912 13.6926 11.1053 14.0493L11.0961 14.1426L9.96488 14.0312ZM8.25558 13.0328C8.59378 13.0661 8.92308 13.0102 9.24358 12.8651C9.56398 12.72 9.80598 12.5142 9.96968 12.2477L10.0971 10.9532L9.25148 10.87C7.92978 10.7399 7.23084 11.0617 7.1547 11.8353C7.12141 12.1735 7.20813 12.4489 7.41486 12.6616C7.62158 12.8743 7.90183 12.998 8.25558 13.0328Z" fill="black"/>
<path d="M14.6519 13.2448C15.0352 13.1935 15.3545 13.0324 15.6099 12.7617C15.8652 12.491 15.985 12.1793 15.9693 11.8267L16.9856 11.6905C17.0145 12.0531 16.9366 12.4124 16.7517 12.7682C16.5669 13.1241 16.2958 13.4245 15.9385 13.6694C15.5851 13.9139 15.1954 14.0647 14.7695 14.1218C13.9139 14.2365 13.1943 14.0433 12.6108 13.5422C12.0307 13.0366 11.6742 12.2883 11.5413 11.2972L11.5172 11.1172C11.4351 10.5054 11.4745 9.94639 11.6352 9.44009C11.7959 8.93379 12.0677 8.52099 12.4505 8.20159C12.8372 7.88179 13.3171 7.68349 13.8901 7.60659C14.5947 7.51219 15.2076 7.64479 15.7288 8.00449C16.2538 8.36369 16.577 8.87799 16.6983 9.54749L15.682 9.68379C15.5965 9.28139 15.397 8.96919 15.0835 8.74719C14.7733 8.52079 14.4149 8.43489 14.0084 8.48939C13.4625 8.56259 13.065 8.81679 12.816 9.25219C12.5703 9.68319 12.4973 10.2704 12.597 11.0138L12.6242 11.217C12.7213 11.941 12.9451 12.4785 13.2957 12.8296C13.6462 13.1807 14.0983 13.3191 14.6519 13.2448Z" fill="black"/>
<path d="M19.6137 10.2011C20.1504 9.66192 20.8016 9.43052 21.5673 9.50702C22.9005 9.64012 23.4978 10.4594 23.3593 11.9648L22.9431 16.1335L21.8644 16.0258L22.2813 11.8513C22.3228 11.3961 22.2514 11.0494 22.0671 10.8112C21.8868 10.5733 21.5808 10.4328 21.1494 10.3898C20.7996 10.3548 20.4832 10.4175 20.2002 10.5776C19.9173 10.7378 19.6869 10.9621 19.5089 11.2506L19.06 15.7458L17.9814 15.6381L18.8756 6.68262L19.9542 6.79032L19.6137 10.2011Z" fill="black"/>
</svg>
